<svg width="287" height="783" viewBox="0 0 287 783" fill="none" xmlns="http://www.w3.org/2000/svg">
<path d="M165.889 26.096C162.057 26.096 158.014 26.8323 153.827 28.2241C144.74 31.2435 134.84 37.3951 130.663 46.0202C126.534 54.5482 128.054 65.4161 129.595 76.1411C128.823 75.8933 128.014 75.6581 127.265 75.6307C127.217 75.629 127.169 75.6281 127.121 75.6281C125.829 75.6281 124.769 76.2871 124.235 78.1968C123.344 81.3841 123.82 88.3583 124.867 92.6113C125.932 96.9372 127.609 98.5589 129.257 100.142L129.26 100.145C129.305 100.188 129.357 100.218 129.412 100.236H129.408C129.582 104.162 129.792 108.108 130.72 111.282C131.697 114.625 133.465 117.094 135.194 119.508H135.189C135.085 124.332 134.974 129.119 134.62 133.24C134.264 137.395 133.662 140.876 133.051 144.358H133.046L130.49 145.023C130.467 145.029 130.444 145.037 130.423 145.047C127.094 146.605 123.752 148.169 118.807 151.267C113.923 154.327 107.473 158.885 101.021 163.448L85.4814 164.715C85.3339 164.727 85.2057 164.822 85.1505 164.959C84.0441 167.713 82.9514 170.43 81.3437 172.997C79.9394 175.239 78.1378 177.373 76.2676 179.514L76.5457 168.316C76.5472 168.257 76.5353 168.2 76.5126 168.148C78.3296 164.636 80.1372 161.044 81.1857 156.284C82.26 151.409 82.531 145.317 82.7943 139.262C86.5807 134.819 90.4052 130.327 92.1478 127.125C93.8946 123.917 93.6279 121.84 92.7884 120.926C92.4432 120.55 92.0245 120.406 91.5914 120.406C90.9777 120.406 90.3141 120.7 89.7572 120.941C89.5968 121.01 89.5063 121.174 89.5233 121.339C89.5137 121.35 89.5005 121.362 89.4919 121.375C86.9328 125.059 84.4002 128.703 82.4552 130.789C80.6132 132.765 79.3146 133.326 78.0078 133.848L73.2695 131.738L75.9386 127.039C76.1314 127.38 76.4877 127.701 77.1971 127.937C77.2523 127.955 77.3092 127.973 77.3684 127.99C77.7749 128.109 78.3742 128.224 79.0101 128.224C80.1751 128.224 81.4624 127.839 81.9077 126.389C82.5225 124.388 81.306 120.35 80.1788 116.548C80.163 116.494 80.1368 116.447 80.1031 116.407C80.1063 116.242 79.9999 116.086 79.8353 116.03C79.6132 115.953 79.3892 115.877 79.1648 115.802C78.1263 115.457 77.0388 115.142 75.9486 115.142C74.9779 115.142 74.0049 115.391 73.0623 116.091C70.9349 117.669 69.0152 121.551 67.163 125.273C67.0901 125.42 67.1177 125.59 67.2196 125.706C64.9552 124.65 62.5707 123.48 61.6496 121.293C60.7673 119.199 61.2667 116.235 61.8247 113.361C61.8577 113.466 61.9377 113.556 62.0463 113.603C62.0968 113.625 62.1493 113.635 62.201 113.635C62.3522 113.635 62.4962 113.547 62.56 113.399L64.05 109.949C64.8226 110.151 65.6505 110.349 66.3898 110.349C66.6792 110.349 66.9556 110.319 67.2108 110.246C68.2467 109.952 68.867 108.998 69.3884 108.22L69.3917 108.215C69.5119 108.036 69.464 107.793 69.2847 107.673C69.2179 107.628 69.1422 107.606 69.0673 107.606C68.9561 107.606 68.8468 107.654 68.7708 107.742C67.5689 104.661 66.4342 101.922 65.0186 101.21C64.8027 101.101 64.5805 101.042 64.3452 101.042C64.1478 101.042 63.9411 101.084 63.7211 101.173C61.3663 102.131 57.9985 108.058 54.4934 114.285L54.4809 114.308C54.409 114.435 54.2765 114.507 54.1399 114.507C54.1327 114.507 54.1253 114.507 54.118 114.506L54.5792 118.316C54.6052 118.531 54.4528 118.725 54.2384 118.752C54.2223 118.754 54.2064 118.755 54.1907 118.755C53.9959 118.755 53.8272 118.609 53.803 118.411L51.221 97.2344C50.752 97.2472 50.2779 97.254 49.8059 97.254C49.1195 97.254 48.43 97.24 47.7378 97.2118C46.7033 97.1697 45.6774 97.0966 44.6611 96.9934L46.6245 131.612C46.6902 131.769 46.6498 131.958 46.5092 132.069L43.4782 134.462C43.4067 134.519 43.3212 134.547 43.2361 134.547C43.1282 134.547 43.0208 134.502 42.9438 134.415C40.5081 131.674 38.1286 129.002 35.3407 127.456C33.6286 126.507 31.768 125.987 30.0371 125.987C29.9216 125.987 29.8064 125.989 29.6921 125.994C28.7416 126.033 27.8403 126.233 27.031 126.607C26.7501 126.738 26.4783 126.889 26.2191 127.058C24.1718 128.393 23.2568 130.459 23.808 131.305C23.9051 131.453 24.0603 131.593 24.2929 131.73C24.7987 132.026 25.5535 132.242 26.54 132.52C27.958 132.919 29.755 133.424 31.5729 134.489C35.206 136.615 38.8664 140.94 42.1148 146.339C45.3672 151.745 48.2322 158.273 51.0846 164.77C51.109 164.826 51.1202 164.887 51.117 164.948L47.1967 239.233C47.1668 239.051 47.0113 238.911 46.8205 238.906C46.8173 238.906 46.8141 238.906 46.8109 238.906C46.5994 238.906 46.4255 239.075 46.4204 239.288C46.2206 247.605 46.0156 256.005 47.4042 261.757C47.5207 262.239 47.6482 262.703 47.785 263.15C48.5494 265.649 49.6056 267.646 50.6272 269.579C51.6187 271.456 52.5757 273.269 53.2462 275.461C53.5967 276.606 53.8702 277.86 54.1543 279.162C55.0663 283.346 56.0765 288.084 60.2638 290.419C62.2779 291.542 65.0028 292.097 67.9153 292.097C70.6678 292.097 73.5874 291.601 76.2322 290.623C78.3299 289.848 80.2743 288.762 81.8401 287.359C85.6026 283.989 87.0975 278.863 88.0173 274.13C88.2586 272.889 88.4614 271.667 88.654 270.507C88.8299 269.446 88.9974 268.439 89.1787 267.506C90.1063 262.733 91.4046 259.891 92.7795 257.386L85.8224 323.64C82.2081 331.082 78.548 338.616 78.0107 345.432C77.4719 352.266 80.0687 358.341 82.6256 364.313L82.5527 379.569C82.5523 379.681 82.5993 379.787 82.6819 379.861L84.9705 381.925C83.6951 383.856 82.4116 385.9 81.3334 389.394C80.1924 393.091 79.2765 398.421 75.549 420.785L59.6268 516.641L58.7178 522.119L50.6758 562.37C50.6547 562.475 50.6779 562.584 50.7399 562.672C50.8019 562.759 50.8971 562.818 51.0034 562.833L61.3334 564.319C55.7763 575.153 50.2318 586.131 46.9137 604.507C43.5497 623.137 42.4709 649.375 41.3929 675.571L39.9821 714.414C37.9404 715.979 35.8398 717.642 34.6895 721.129C33.5297 724.644 33.3382 730.015 33.1464 735.294C33.1415 735.43 33.2073 735.553 33.311 735.627L32.7375 744.641C31.4078 748.016 30.0866 751.34 27.8873 754.417C27.0159 755.636 26.0037 756.82 24.9713 758.026C23.3868 759.879 21.753 761.786 20.6021 763.893C18.7027 767.371 18.1355 771.353 18.0257 774.158C17.9155 776.976 18.2629 778.838 20.794 779.998C22.9108 780.968 26.5777 781.451 30.3217 781.876C30.5127 781.898 30.7065 781.92 30.9007 781.941C30.9651 782.051 31.0787 782.128 31.2153 782.135C37.1992 782.439 43.2176 782.747 48.3061 782.747C52.4657 782.747 56.0039 782.541 58.3935 781.961C62.9756 780.847 63.4845 778.323 63.5658 775.875C63.5739 775.631 63.578 775.389 63.5821 775.15C63.5862 774.913 63.5903 774.679 63.5978 774.45C63.6021 774.32 63.6076 774.192 63.6141 774.063C63.6829 772.712 63.8686 771.441 64.0472 770.22C64.2064 769.132 64.3612 768.077 64.4126 767.066C64.5252 764.853 64.1427 762.872 63.7625 760.942C66.729 751.617 69.7078 742.236 70.3307 736.705C70.9486 731.218 69.2538 729.418 67.5042 727.781C68.2094 722.133 68.9112 716.438 68.6183 713.467C68.3367 710.612 67.1033 710.105 65.8451 709.907L80.3874 660.447C83.5098 651.735 86.6412 642.996 88.9062 630.602C91.1651 618.243 92.5622 602.253 93.9554 586.278L93.9605 586.219C94.7067 584.305 95.4248 582.47 96.3622 581.24C96.7904 580.677 97.2678 580.236 97.8058 579.74C98.4363 579.158 99.1354 578.515 99.8491 577.557C101.072 575.918 102.332 573.365 103.574 570.799C106.726 570.826 109.884 570.852 112.936 570.852C120.866 570.852 128.11 570.676 132.848 569.872C138.177 568.969 140.381 567.267 142.004 565.679C142.207 565.48 142.4 565.284 142.587 565.094C142.767 564.912 142.941 564.735 143.115 564.565C144.888 562.829 146.775 561.634 148.699 560.416C148.881 560.301 148.936 560.059 148.82 559.876C148.782 559.817 148.731 559.771 148.673 559.74H148.668C149.118 555.511 149.612 551.139 151.273 542.962C152.917 534.865 155.703 523.041 158.548 511.024H158.553C160.684 523.435 162.744 535.589 163.429 542.944C164.146 550.64 163.354 553.035 162.572 555.432C162.53 555.561 162.558 555.702 162.646 555.806L166.11 559.892H166.106C166.116 560.055 166.228 560.201 166.394 560.246L166.449 560.261H166.445C166.509 560.303 166.583 560.324 166.658 560.324C166.664 560.324 166.67 560.324 166.676 560.324H166.681L168.667 560.861H168.663C169.073 564.824 169.498 568.815 170.44 572.074C170.773 573.227 171.169 574.284 171.555 575.314C171.935 576.326 172.303 577.311 172.606 578.358C172.89 579.341 173.114 580.376 173.229 581.526C173.591 585.171 172.858 590.002 172.11 594.907C169.947 607.363 167.779 619.845 167.129 633.894C166.48 647.943 167.347 663.552 168.213 679.136L167.357 712.545L166.853 713.045C166.778 713.119 166.736 713.22 166.737 713.326L166.791 719.563H166.786C166.175 719.614 165.517 719.704 164.872 720.022C164.11 720.399 163.389 721.084 162.725 721.71C162.568 721.858 162.561 722.105 162.709 722.262C162.773 722.33 162.855 722.37 162.941 722.381H162.937L163.669 726.407H163.664C161.967 729.348 160.229 732.391 160.028 735.694C159.825 739.034 161.199 742.599 162.527 746.056H162.522C163.053 749.062 163.563 752.006 163.06 755.325C163.057 755.341 163.055 755.357 163.053 755.373C162.778 757.152 162.215 759.045 161.678 760.845C161.211 762.411 160.761 763.919 160.567 765.177C160.142 767.933 160.943 769.487 161.708 770.966L161.711 770.973C161.763 771.073 161.856 771.146 161.966 771.173L172.849 773.812C172.879 773.82 172.91 773.824 172.942 773.824C172.94 773.824 172.943 773.824 172.942 773.824C173.741 773.815 174.534 773.806 175.268 773.806C176.809 773.806 178.11 773.843 178.756 773.99C178.779 773.995 178.799 774 178.82 774.005C179.016 774.056 179.08 774.106 179.096 774.122H179.091C179.089 774.14 179.082 774.184 179.054 774.286C179.035 774.353 178.999 774.478 178.995 774.603C178.992 774.669 178.998 774.748 179.025 774.831C179.064 774.951 179.135 775.045 179.21 775.115C179.399 775.289 179.685 775.375 179.927 775.43C180.251 775.504 180.647 775.55 181.015 775.594L181.035 775.595L181.825 775.649H181.821C189.266 777.435 196.711 779.161 203.758 779.887C205.778 780.096 207.784 780.224 209.7 780.224C214.877 780.224 219.39 779.284 221.715 776.426C224.908 772.502 223.812 765.206 220.347 760.556C219.62 759.58 218.788 758.718 217.893 757.933C216.173 756.425 214.204 755.192 212.284 753.988C210.388 752.799 208.541 751.64 206.962 750.256C202.947 746.736 200.622 741.715 199.283 738.175C197.95 734.655 197.617 732.67 197.281 730.67C197.265 730.572 197.213 730.49 197.142 730.432H197.137C197.71 726.251 198.258 722.058 198.1 718.637C197.936 715.087 197.013 712.376 196.098 709.722H196.093L201.11 683.11C205.448 662.27 209.791 641.408 211.937 625.06C214.083 608.7 214.031 596.86 213.72 588.091C213.416 579.529 212.867 573.888 212.313 568.325H212.308L246.067 566.041C246.28 566.026 246.442 565.845 246.431 565.632L237.537 380.512H237.532C239.471 379.937 241.545 379.211 242.233 376.265C242.917 373.337 242.216 368.168 241.532 363.12H241.527C242.442 358.644 243.345 354.124 241.099 344.427C240.181 340.463 238.736 335.631 237.201 330.498C234.977 323.062 232.563 314.986 231.251 307.917C229.036 295.976 229.966 286.891 230.672 280.088C231.29 274.114 231.73 269.945 232.15 265.978H232.155C234.099 272.477 235.937 278.893 236.574 284.714C236.829 287.047 236.892 289.288 236.959 291.711C237.074 295.836 237.203 300.458 238.331 306.841C240.12 316.958 244.418 331.491 248.37 342.424C249.786 346.342 251.158 349.798 252.451 352.898C253.713 355.923 254.903 358.615 255.983 361.058C256.888 363.105 257.714 364.974 258.45 366.738C260.963 372.763 262.398 377.504 263.837 382.261C263.847 382.295 263.862 382.328 263.881 382.357H263.875C264.972 389.404 266.042 396.363 265.888 400.959C265.734 405.553 264.357 407.758 262.515 410.414C262.363 410.633 262.215 410.845 262.058 411.07C260.302 413.586 258.249 416.516 257.491 419.795C257.132 421.352 257.066 422.971 257.11 424.523C257.14 425.591 257.223 426.634 257.3 427.604C257.368 428.469 257.431 429.271 257.452 429.996C257.529 432.697 257.01 434.338 256.478 436.017L256.474 436.028C254.864 441.193 253.206 446.492 253.284 449.004C253.289 449.153 253.299 449.293 253.316 449.427C253.506 450.964 254.457 451.352 255.495 451.352C255.712 451.352 255.932 451.336 256.151 451.308C256.396 451.278 256.648 451.235 256.898 451.188H256.903C256.974 451.249 257.066 451.283 257.16 451.283C257.208 451.283 257.258 451.274 257.306 451.255C259.503 450.369 261.87 449.43 263.137 447.297C264.219 445.473 264.467 442.821 264.634 440.554C264.647 440.373 264.66 440.194 264.672 440.017C264.685 439.845 264.697 439.675 264.709 439.508C264.876 437.239 265.074 435.446 265.275 433.695H265.27C265.76 433.659 266.238 433.632 266.698 433.632C266.847 433.632 266.994 433.635 267.139 433.641C268.642 433.706 269.838 434.133 270.523 435.564C271.639 437.891 271.465 442.877 271.007 446.007C270.625 448.613 270.066 449.792 269.477 450.773H269.472C269.446 450.794 269.422 450.82 269.402 450.849C266.439 455.066 263.478 459.28 261.142 462.5C260.955 462.758 260.769 463.013 260.591 463.259C260.42 463.492 260.252 463.724 260.09 463.947C258.343 466.356 257.014 468.254 256.932 469.69C256.851 471.098 257.919 471.97 259.01 472.635C259.227 472.766 259.451 472.895 259.677 473.019H259.672C259.667 473.116 259.698 473.214 259.766 473.292C259.843 473.382 259.952 473.429 260.062 473.429C260.152 473.429 260.243 473.398 260.317 473.334L260.347 473.308H260.342C260.467 473.296 260.585 473.224 260.65 473.106C260.664 473.079 260.675 473.052 260.683 473.024H260.677L277.502 458.567C277.507 458.562 277.513 458.557 277.518 458.553C279.043 457.094 280.631 455.582 281.632 453.215C282.007 452.329 282.296 451.331 282.536 450.334C282.75 449.448 282.926 448.553 283.089 447.727C283.232 447.006 283.363 446.341 283.501 445.771C283.914 444.056 284.38 443.201 284.86 442.428H284.854C284.95 442.398 285.035 442.332 285.085 442.236C285.896 440.695 286.715 439.128 286.874 435.359C287.031 431.635 286.546 425.728 286.066 419.862L284.205 395.529L283.061 380.811C283.057 380.76 283.044 380.713 283.023 380.67H283.017C282.082 372.065 281.145 363.442 280.044 351.492C279.948 350.458 279.851 349.389 279.752 348.309C279.65 347.186 279.545 346.03 279.437 344.866C278.449 334.145 277.223 321.899 275.187 311.835C272.715 299.615 269.05 290.622 267.04 285.942C266.164 283.901 265.601 282.679 265.231 281.872C265.047 281.473 264.913 281.182 264.81 280.943C264.647 280.563 264.569 280.329 264.507 280.032C264.424 279.634 264.37 279.124 264.332 278.546H264.327C264.178 270.619 264.001 262.677 262.872 255.245C262.83 254.967 262.786 254.691 262.741 254.415C262.103 250.475 261.216 246.692 260.399 243.204C259.694 240.194 259.041 237.411 258.638 234.918C257.841 230 258.009 226.206 258.294 222.518H258.289C258.399 222.438 258.464 222.303 258.448 222.158C258.424 221.952 258.401 221.745 258.378 221.539H258.372C258.386 221.374 258.399 221.21 258.413 221.046C258.423 220.923 258.375 220.809 258.292 220.731H258.287C256.434 204.268 254.543 187.937 251.496 178.618C248.364 169.041 243.989 166.802 239.649 164.679H239.644L238.905 156.756C238.887 156.561 238.728 156.41 238.532 156.402C233.604 156.2 228.694 155.997 224.436 155.537C220.305 155.09 216.784 154.399 213.266 153.698H213.261C210.892 152.832 208.531 151.966 206.191 151.014C204.369 150.272 202.561 149.479 200.777 148.596C196.609 146.534 192.552 143.971 188.475 141.396C188.411 141.355 188.338 141.335 188.267 141.335C188.247 141.335 188.227 141.337 188.208 141.34C187.273 140.375 186.368 139.078 185.695 135.479C184.893 131.19 184.433 123.702 183.972 116.171C183.97 116.139 183.964 116.109 183.956 116.08H183.951C184.955 114.141 185.937 112.168 186.462 110.22C186.967 108.344 187.045 106.503 187.07 104.703H187.074C187.223 104.795 187.379 104.875 187.544 104.935C187.753 105.01 187.966 105.051 188.183 105.051C189.038 105.051 189.972 104.431 191.126 102.911C193.35 99.9814 196.731 93.2774 197.78 88.6984C198.835 84.093 197.555 81.5051 196.097 80.5356C195.901 80.4054 195.702 80.3051 195.501 80.2321C195.211 80.1277 194.923 80.083 194.64 80.083C193.923 80.083 193.231 80.3684 192.597 80.6964C194.103 74.6485 195.584 68.6087 196.266 63.4209C196.981 57.9826 196.822 53.4496 193.924 47.256C191.047 41.1049 185.441 33.2586 178.414 29.2736C176.325 28.0883 174.112 27.2465 171.796 26.7284C169.892 26.3027 167.92 26.096 165.889 26.096ZM129.858 77.0269C129.857 77.0269 129.855 77.0269 129.854 77.0269C129.852 77.0269 129.851 77.0269 129.85 77.0269H129.858ZM129.772 99.2347C129.772 99.2347 129.772 99.2347 129.772 99.2347V99.2347ZM188.184 104.266C188.181 104.266 188.178 104.266 188.175 104.266C188.172 104.266 188.169 104.266 188.166 104.266H188.184ZM66.3929 109.569C66.3914 109.569 66.3898 109.569 66.3882 109.569C66.3868 109.569 66.3853 109.569 66.3838 109.569H66.3929ZM62.1275 112.429L61.9071 112.939C61.9242 112.852 61.9412 112.765 61.9582 112.678C61.9789 112.572 62.0443 112.485 62.1275 112.429ZM135.59 118.648C135.589 118.648 135.592 118.648 135.59 118.648V118.648ZM68.0352 125.282C68.111 125.393 68.1282 125.539 68.0677 125.669C68.0014 125.811 67.8604 125.895 67.713 125.895C67.6579 125.895 67.6018 125.883 67.5484 125.859C67.5337 125.852 67.5188 125.845 67.5042 125.838C67.5058 125.838 67.511 125.838 67.5127 125.838C67.6564 125.838 67.7945 125.758 67.8629 125.621C67.9191 125.508 67.979 125.395 68.0352 125.282ZM79.0065 127.448C79.0028 127.448 78.9991 127.448 78.9954 127.448C78.9917 127.448 78.988 127.448 78.9843 127.448H79.0065ZM78.0031 134.663C78.0018 134.663 78.0043 134.663 78.0031 134.663V134.663ZM188.436 142.501C188.434 142.501 188.433 142.501 188.431 142.501C188.429 142.501 188.427 142.501 188.425 142.501H188.436ZM213.404 154.556C213.403 154.556 213.405 154.556 213.404 154.556V154.556ZM101.048 164.301C101.047 164.301 101.049 164.301 101.048 164.301V164.301ZM239.343 165.994C239.341 165.994 239.339 165.994 239.337 165.994C239.336 165.994 239.334 165.994 239.332 165.994H239.343ZM232.037 263.829C232.038 263.829 232.04 263.829 232.042 263.829H232.031C232.033 263.829 232.035 263.829 232.037 263.829ZM67.9327 291.315C67.9282 291.315 67.9236 291.315 67.919 291.315C67.9145 291.315 67.9099 291.315 67.9055 291.315H67.9327ZM264.95 432.705C264.952 432.705 264.953 432.705 264.954 432.705H264.946C264.947 432.705 264.949 432.705 264.95 432.705ZM255.465 450.575C255.463 450.575 255.461 450.575 255.458 450.575C255.456 450.575 255.454 450.575 255.451 450.575H255.465ZM257.387 451.092C257.387 451.092 257.387 451.092 257.387 451.092V451.092ZM61.9322 563.611C61.9312 563.611 61.9332 563.611 61.9322 563.611V563.611ZM112.93 570.07C113.597 570.07 114.259 570.069 114.915 570.066H114.919C114.262 570.069 113.599 570.07 112.93 570.07ZM209.732 779.442C209.721 779.442 209.71 779.442 209.698 779.442C209.687 779.442 209.676 779.442 209.665 779.442H209.732Z" fill="url(#paint0_linear_8_60)" fill-opacity="0.7"/>
<path d="M48.8762 0C49.5471 0 50.2212 0.0136321 50.8978 0.0410559C77.8878 1.13841 98.8782 23.9079 97.7808 50.8977C96.7389 76.5264 76.1563 96.7445 50.9746 97.7799C50.9054 97.6647 50.7792 97.5901 50.6397 97.5901C50.6239 97.5901 50.6079 97.5911 50.5919 97.5928C50.4579 97.6094 50.348 97.6917 50.2909 97.8034C49.845 97.8156 49.3941 97.8216 48.9454 97.8216C48.2744 97.8216 47.6005 97.808 46.9239 97.7803C19.934 96.683 -1.05617 73.9139 0.041136 46.9236C1.1111 20.6103 22.7798 0 48.8762 0Z" fill="url(#paint1_linear_8_60)" fill-opacity="0.7"/>
<path d="M69.9895 122.878C69.9329 122.878 69.8769 122.903 69.839 122.951C68.2323 124.972 67.3857 126.064 67.2992 126.226C67.2868 126.25 67.2776 126.273 67.2722 126.294H67.2644L66.563 127.415L66.5527 127.434L65.9994 128.585L65.9963 128.592C65.9505 128.698 65.9091 128.814 65.8721 128.94C65.8422 129.041 65.9005 129.148 66.0022 129.178C66.0203 129.183 66.0385 129.186 66.0564 129.186C66.1394 129.186 66.2159 129.131 66.2405 129.048C66.2722 128.94 66.3072 128.841 66.3457 128.751L66.8944 127.609L67.628 126.437L67.4142 126.15C67.4325 126.145 67.4503 126.143 67.4676 126.143C67.5075 126.143 67.5449 126.156 67.5798 126.183C67.6608 126.248 67.6821 126.324 67.6382 126.407C67.7156 126.263 68.5494 125.19 70.1395 123.19C70.2055 123.107 70.1918 122.986 70.1087 122.92C70.0735 122.892 70.0313 122.878 69.9895 122.878Z" fill="url(#paint2_linear_8_60)" fill-opacity="0.7"/>
<path d="M69.6353 123.52C69.5564 123.52 69.4825 123.569 69.4545 123.647C69.4371 123.696 69.3826 123.765 69.291 123.853C68.8102 124.255 68.538 124.494 68.4762 124.57C68.4591 124.591 68.4459 124.612 68.4369 124.634H68.4291C68.247 124.866 67.712 125.485 66.8242 126.492L66.8195 126.497C65.9949 127.507 65.5031 128.244 65.3442 128.708C65.3098 128.808 65.3633 128.918 65.4636 128.952C65.4841 128.959 65.5052 128.962 65.5258 128.962C65.6055 128.962 65.68 128.912 65.7073 128.833C65.8511 128.413 66.3195 127.717 67.1124 126.746C68.0659 125.665 68.6174 125.024 68.7676 124.824L68.7924 124.757H68.8003C68.795 124.778 68.7862 124.797 68.7738 124.812C68.8232 124.753 69.0811 124.529 69.5473 124.138L69.5571 124.129C69.6921 124 69.7785 123.882 69.8161 123.776C69.8517 123.676 69.7996 123.567 69.6997 123.531C69.6785 123.523 69.6567 123.52 69.6353 123.52Z" fill="url(#paint3_linear_8_60)" fill-opacity="0.7"/>
<path d="M69.3286 123.715C69.2559 123.715 69.1863 123.757 69.154 123.827C69.1173 123.907 69.0692 123.979 69.0096 124.043C68.4008 124.519 67.8606 125.049 67.3966 125.633C67.071 126.004 66.748 126.427 66.4284 126.902L65.9202 127.476L65.9122 127.486L65.0764 128.569C65.0116 128.653 65.0272 128.774 65.1111 128.838C65.146 128.865 65.1873 128.878 65.2283 128.878C65.2857 128.878 65.3425 128.853 65.3803 128.804L66.2126 127.725L66.7317 127.136L66.747 127.116C67.0587 126.652 67.3729 126.241 67.6896 125.881L67.6973 125.872C68.1486 125.304 68.672 124.789 69.2674 124.326L69.2896 124.305C69.3778 124.211 69.449 124.105 69.5031 123.987C69.5472 123.89 69.5048 123.776 69.4084 123.732C69.3825 123.721 69.3554 123.715 69.3286 123.715Z" fill="url(#paint4_linear_8_60)" fill-opacity="0.7"/>
<path d="M69.5522 123.343C69.5041 123.343 69.456 123.361 69.4188 123.397L68.3811 124.401L68.3775 124.404C67.6069 125.19 66.7403 126.124 65.7778 127.206L65.7722 127.213C65.371 127.708 65.0962 128.144 64.9479 128.523C64.9092 128.622 64.9578 128.733 65.0565 128.772C65.0796 128.781 65.1032 128.785 65.1265 128.785C65.2032 128.785 65.2757 128.739 65.3053 128.663C65.4387 128.323 65.6919 127.922 66.065 127.461C67.0207 126.386 67.8816 125.458 68.6482 124.677L69.6856 123.673C69.7618 123.599 69.7639 123.478 69.6902 123.401C69.6525 123.362 69.6024 123.343 69.5522 123.343Z" fill="url(#paint5_linear_8_60)" fill-opacity="0.7"/>
<path d="M62.4296 111.436C62.3473 111.436 62.2713 111.49 62.2461 111.572C62.1412 111.916 62.0493 112.194 61.9704 112.406C61.1575 114.517 60.6238 115.977 60.3693 116.786L60.3657 116.799C60.2819 117.149 60.1679 117.543 60.0235 117.979L60.0203 117.99C59.9626 118.207 59.9224 118.374 59.8997 118.493C59.7673 119.139 59.675 119.748 59.6226 120.321C59.613 120.426 59.6907 120.52 59.7963 120.529C59.8023 120.53 59.8082 120.53 59.8141 120.53C59.9123 120.53 59.9959 120.455 60.005 120.356C60.0562 119.796 60.1466 119.2 60.2763 118.568C60.297 118.46 60.3347 118.302 60.3884 118.1C60.5343 117.659 60.6499 117.259 60.736 116.901C60.9879 116.1 61.5187 114.647 62.3295 112.542C62.4108 112.323 62.5059 112.036 62.6133 111.684C62.6442 111.583 62.5871 111.476 62.4857 111.445C62.467 111.439 62.4482 111.436 62.4296 111.436Z" fill="url(#paint6_linear_8_60)" fill-opacity="0.7"/>
<path d="M62.0325 111.771C62.0321 111.771 62.033 111.771 62.0325 111.771C61.9265 111.771 61.8398 111.858 61.8405 111.964C61.8437 112.444 61.8 112.848 61.7096 113.175L61.7083 113.18C61.5514 113.812 61.3601 114.437 61.1344 115.055L61.1283 115.075C60.9794 115.683 60.8148 116.284 60.6344 116.879L60.6301 116.896C60.2256 118.852 59.8795 120.432 59.592 121.635C59.5674 121.738 59.6309 121.842 59.7341 121.866C59.7491 121.87 59.7641 121.872 59.7788 121.872C59.8657 121.872 59.9443 121.812 59.9653 121.724C60.2531 120.52 60.5988 118.942 61.0026 116.99C61.1831 116.395 61.347 115.794 61.4963 115.187C61.7259 114.558 61.9196 113.921 62.0797 113.278C62.1796 112.916 62.2278 112.477 62.2244 111.961C62.2238 111.856 62.138 111.771 62.0325 111.771Z" fill="url(#paint7_linear_8_60)" fill-opacity="0.7"/>
<path d="M62.1272 111.929C62.1259 111.929 62.1245 111.929 62.1232 111.929C62.0172 111.931 61.933 112.019 61.9353 112.125C61.9524 112.94 61.9093 113.628 61.806 114.19C61.7822 114.304 61.7546 114.408 61.7235 114.501L61.2928 115.724L61.2871 115.743L60.6774 118.286C60.6274 118.464 60.427 119.465 60.0765 121.287C59.9119 122.016 59.814 122.464 59.7829 122.631C59.7334 122.85 59.6793 123.242 59.6209 123.807C59.61 123.913 59.6867 124.007 59.7922 124.018C59.7989 124.019 59.8054 124.019 59.812 124.019C59.9092 124.019 59.9926 123.945 60.0028 123.847C60.0603 123.29 60.1123 122.911 60.1587 122.709L60.1603 122.701C60.1905 122.539 60.2878 122.094 60.4523 121.366L60.4536 121.36C60.81 119.506 61.008 118.515 61.0475 118.387L61.0508 118.375L61.6583 115.842L62.0866 114.626C62.123 114.517 62.1557 114.394 62.1828 114.263L62.1835 114.259C62.2916 113.672 62.3368 112.958 62.3191 112.117C62.3169 112.012 62.2314 111.929 62.1272 111.929Z" fill="url(#paint8_linear_8_60)" fill-opacity="0.7"/>
<path d="M62.2645 112.126C62.1609 112.126 62.0756 112.208 62.0728 112.313C62.0618 112.714 62.0361 112.995 61.9955 113.154L61.9944 113.159L61.3859 115.832L61.3831 115.847C61.2794 116.567 60.8189 118.967 60.0014 123.046L60.0005 123.051C59.8741 123.775 59.8191 124.312 59.8353 124.663C59.8401 124.766 59.9249 124.846 60.0269 124.846C60.0299 124.846 60.033 124.846 60.0359 124.845C60.1418 124.841 60.2237 124.751 60.2188 124.645C60.2039 124.324 60.2569 123.816 60.3779 123.121C61.1909 119.064 61.6519 116.663 61.7608 115.917L62.3687 113.244C62.4155 113.057 62.4448 112.75 62.4565 112.323C62.4594 112.217 62.3759 112.129 62.2699 112.126C62.2681 112.126 62.2663 112.126 62.2645 112.126Z" fill="url(#paint9_linear_8_60)" fill-opacity="0.7"/>
<path d="M61.9973 113.608C62.01 113.608 62.0235 113.609 62.0376 113.611L62.0644 113.616C62.1055 113.628 62.1388 113.651 62.1645 113.685L61.9371 113.737C61.9509 113.699 61.9668 113.656 61.9848 113.608H61.977C61.9836 113.608 61.9904 113.608 61.9973 113.608ZM62.825 110.725C62.817 110.729 62.809 110.735 62.801 110.74C62.6434 110.847 62.4233 111.23 62.1407 111.889C62.1405 111.89 62.1409 111.889 62.1407 111.889C62.0897 111.985 62.0015 112.293 61.8821 112.809C61.6464 113.417 61.5167 113.761 61.4974 113.84C60.9427 115.774 60.5857 117.092 60.426 117.795C60.3307 118.204 60.2597 118.629 60.213 119.069C60.1407 119.603 60.0615 120.44 59.9756 121.581C59.8066 122.736 59.7231 123.374 59.7259 123.496C59.7267 123.527 59.7317 123.554 59.7411 123.578C59.7644 123.65 59.8145 123.691 59.8941 123.703C59.9083 123.705 59.9213 123.706 59.9342 123.706C60.0206 123.706 60.0801 123.657 60.1128 123.558C60.1345 123.491 60.1778 123.265 60.2425 122.88L60.244 122.87C60.3101 122.283 60.3676 121.85 60.4165 121.571L61.0167 118.113C61.0806 117.805 61.148 117.522 61.2186 117.264C61.7823 115.433 62.1087 114.292 62.1981 113.843H62.2023C62.2357 113.736 62.334 113.141 62.4972 112.059H62.505C62.5134 112.06 62.5219 112.061 62.5301 112.061C62.6144 112.061 62.6917 112.005 62.7151 111.92C62.8067 111.587 62.9313 111.275 63.0891 110.983L62.825 110.725Z" fill="url(#paint10_linear_8_60)" fill-opacity="0.7"/>
<path d="M63.2748 110.21C63.1795 110.21 63.0969 110.281 63.0847 110.378C62.9963 111.075 62.8619 111.76 62.6818 112.43L61.4337 116.371L61.4291 116.389L61.4279 116.394C61.0594 118.038 60.6571 119.671 60.2209 121.293L60.2174 121.309C59.9426 122.808 59.8478 124.036 59.9331 124.994L60.3159 124.965C60.2871 124.473 60.3014 123.875 60.3587 123.172C60.3604 123.151 60.3587 123.131 60.3541 123.112H60.3464C60.3967 122.588 60.4786 122.015 60.5923 121.393C61.0293 119.768 61.4316 118.132 61.8005 116.487L63.0501 112.538L63.0525 112.53C63.2373 111.842 63.375 111.141 63.4655 110.427C63.4787 110.322 63.4044 110.225 63.2992 110.212C63.291 110.21 63.2829 110.21 63.2748 110.21Z" fill="url(#paint11_linear_8_60)" fill-opacity="0.7"/>
<path d="M62.6093 111.708C62.5379 111.708 62.4772 111.749 62.4273 111.83C62.4093 111.859 62.3903 111.9 62.3712 111.951L62.3686 111.958C62.2922 112.167 62.1606 112.558 61.974 113.131L61.9683 113.149C61.4051 114.994 61.0976 116.035 61.0478 116.265C60.9458 116.619 60.8222 117.247 60.6783 118.149C60.6006 118.596 60.5647 118.904 60.5707 119.071C60.573 119.172 60.6211 119.235 60.715 119.26C60.7386 119.266 60.7605 119.269 60.781 119.269C60.861 119.269 60.9181 119.222 60.9524 119.126C60.9605 119.104 60.9708 119.067 60.9835 119.016L60.9855 119.007C61.1095 118.386 61.2134 117.933 61.2971 117.648L61.7004 116.293L62.3653 113.88C62.6216 113.015 62.7744 112.507 62.8234 112.357H62.8157C62.7925 112.389 62.759 112.412 62.7151 112.424L62.672 112.273H62.6642C62.6674 112.264 62.6706 112.255 62.6737 112.246H62.6815L62.8451 112.298C62.8712 112.217 62.8842 112.136 62.8842 112.055C62.8842 112.01 62.8684 111.968 62.842 111.936H62.8342C62.8342 111.919 62.8322 111.902 62.8275 111.885C62.8055 111.804 62.7604 111.75 62.6922 111.725C62.6637 111.714 62.6351 111.708 62.6093 111.708Z" fill="url(#paint12_linear_8_60)" fill-opacity="0.7"/>
<path d="M55.0285 116.037L55.0129 116.057L54.8878 116.216C54.8916 116.208 54.8942 116.199 54.9007 116.189C54.9073 116.178 54.9152 116.167 54.9246 116.154L54.9397 116.134C54.9611 116.107 54.9882 116.074 55.0208 116.037H55.0285ZM54.8117 116.184L54.8878 116.216L54.8575 116.254L54.7936 116.205H54.7859L54.8039 116.184H54.8117ZM57.0076 110.883L57.0007 110.883C56.933 110.882 56.8539 110.933 56.7634 111.037C56.5179 111.324 56.2317 111.712 55.905 112.202L55.3986 112.694L53.5371 115.4L53.4967 115.481C53.4321 115.625 53.3798 115.766 53.3398 115.906C53.2846 116.17 53.237 116.38 53.1971 116.535L52.6076 117.508C52.415 117.895 52.3113 118.139 52.2965 118.241C52.2858 118.375 52.3551 118.452 52.5044 118.472C52.3262 118.792 52.2219 119.001 52.1914 119.098C52.1635 119.197 52.1997 119.272 52.3001 119.322L52.1675 119.519L52.3683 119.667C52.3031 119.889 52.2475 120.184 52.2016 120.554L52.5736 120.639L52.7075 120.252L52.8673 120.354L53.1845 119.944L53.3712 120.116L53.7435 119.769H53.7511C53.6946 119.859 53.6413 119.956 53.5914 120.06L53.9166 120.259L57.3088 115.949L57.0374 115.68L56.9846 115.723C56.979 115.702 56.9637 115.677 56.9385 115.647L56.6827 115.621C56.3783 115.833 55.9964 116.175 55.5372 116.649L55.7615 116.349H55.7538L57.1257 114.825C57.1861 114.695 57.1364 114.598 56.9765 114.534C56.905 114.517 56.7841 114.591 56.6138 114.754C56.978 114.26 57.1661 113.987 57.1784 113.935C57.2167 113.819 57.1751 113.729 57.0536 113.666C57.0002 113.649 56.9466 113.659 56.8927 113.696L56.2199 114.226C55.8984 114.494 55.5498 114.823 55.1742 115.213C55.8107 114.295 56.2951 113.612 56.6273 113.166H56.6196C56.7552 113.039 56.8216 112.961 56.8189 112.931C56.8661 112.748 56.7753 112.669 56.5465 112.694L55.7788 113.485L56.1267 112.989L55.874 112.767L56.2106 112.428C56.7367 111.657 57.0594 111.235 57.1787 111.162C57.227 111.007 57.17 110.914 57.0076 110.883Z" fill="url(#paint13_linear_8_60)" fill-opacity="0.7"/>
<path d="M68.1832 106.627L68.1859 106.633L68.1306 106.65L68.1832 106.627ZM65.6202 101.979L65.6153 101.979C65.4446 102.016 65.3937 102.119 65.4625 102.287C65.4869 102.331 65.5268 102.381 65.5821 102.437L66.0933 102.891C66.1529 102.951 66.2043 103.011 66.2475 103.07L66.2582 103.086C66.2295 103.086 66.1942 103.108 66.1522 103.152C66.1316 103.179 66.1187 103.209 66.1136 103.242C66.0985 103.295 66.1282 103.373 66.2027 103.477C66.4042 103.801 66.7871 104.293 67.3514 104.954L67.3865 105.003H67.3786L67.4089 105.058L67.595 105.337L67.5612 105.352L67.7288 105.784L67.7045 105.798L67.7719 105.928H67.764L67.8468 106.317C67.8744 106.446 67.9056 106.57 67.9405 106.689C67.9758 106.812 68.0587 106.985 68.1892 107.208C68.2766 107.363 68.4036 107.516 68.5701 107.668C68.6683 107.751 68.7605 107.818 68.8467 107.871C68.828 107.863 68.8436 107.877 68.8934 107.914C68.9318 107.941 68.9796 107.95 69.0366 107.939C69.0797 107.999 69.1338 108.032 69.1989 108.036C69.3644 108.014 69.4247 107.917 69.3798 107.746C68.9166 106.773 68.581 106.11 68.3729 105.755C68.1836 105.451 67.9611 105.132 67.7052 104.799L67.3444 104.114C67.243 103.956 67.1302 103.798 67.006 103.639C66.8537 103.293 66.7004 103.023 66.5463 102.828C66.5096 102.747 66.2779 102.525 65.851 102.163L65.7474 102.028C65.6988 101.992 65.6564 101.976 65.6202 101.979Z" fill="url(#paint14_linear_8_60)" fill-opacity="0.7"/>
<path d="M47.1028 240.607L47.0976 240.667C47.084 240.823 47.0721 240.965 47.0622 241.095C47.0637 241.02 47.0662 240.947 47.0697 240.875C47.0714 240.839 47.0733 240.803 47.0756 240.767C47.0777 240.732 47.0802 240.696 47.0829 240.661L47.0871 240.608H47.0806L47.1028 240.607ZM49.677 226.977L49.6568 226.978C49.5856 226.987 49.5338 227.025 49.5013 227.091C49.4119 227.367 49.2956 227.748 49.1522 228.234C49.1019 228.219 49.0303 228.37 48.9375 228.687L48.885 228.678C48.9355 228.415 48.9922 228.136 49.0553 227.84C49.0674 227.768 49.0719 227.721 49.0689 227.699C49.0491 227.559 48.9649 227.498 48.8164 227.514C48.7455 227.534 48.6897 227.604 48.6491 227.724C48.4817 228.191 48.3592 228.571 48.2815 228.865C47.9424 230.427 47.6996 231.644 47.5531 232.516L47.345 233.799C47.2308 234.668 47.1791 235.133 47.1897 235.194H47.1821L47.1512 235.361C47.0699 235.803 46.9973 236.225 46.9335 236.627C46.8533 236.966 46.7632 237.442 46.6634 238.053C46.513 238.905 46.4367 239.678 46.4343 240.372C46.4743 240.51 46.5458 240.577 46.6487 240.573C46.6353 240.822 46.646 241.05 46.6808 241.257L47.0528 241.221C47.0207 241.708 47.0138 241.969 47.0321 242.006C47.0676 242.137 47.1393 242.199 47.2473 242.194C47.3823 242.234 47.4895 242.015 47.5689 241.536C47.6963 240.85 47.8018 240.253 47.8855 239.744L48.3615 236.539C48.591 234.732 48.7464 233.576 48.8277 233.07H48.8173L48.8433 233.005L48.9975 232.105H48.9898L49.0998 231.648C49.266 231.018 49.3967 230.59 49.4918 230.364L49.3663 230.293L49.4593 229.987L49.4222 229.977L49.4825 229.728C49.531 229.525 49.5988 229.288 49.6859 229.017C49.7074 228.919 49.7172 228.828 49.7155 228.746C49.7298 228.57 49.6521 228.479 49.4822 228.473L49.8688 227.176C49.8666 227.061 49.8027 226.994 49.677 226.977Z" fill="url(#paint15_linear_8_60)" fill-opacity="0.7"/>
<defs>
<linearGradient id="paint0_linear_8_60" x1="152.456" y1="26.096" x2="152.456" y2="782.747" gradientUnits="userSpaceOnUse">
<stop stop-color="#1D428A"/>
<stop offset="1" stop-color="#C8102E"/>
</linearGradient>
<linearGradient id="paint1_linear_8_60" x1="48.911" y1="0" x2="48.911" y2="97.8216" gradientUnits="userSpaceOnUse">
<stop stop-color="#1D428A"/>
<stop offset="1" stop-color="#C8102E"/>
</linearGradient>
<linearGradient id="paint2_linear_8_60" x1="68.0228" y1="122.878" x2="68.0228" y2="129.186" gradientUnits="userSpaceOnUse">
<stop stop-color="#1D428A"/>
<stop offset="1" stop-color="#C8102E"/>
</linearGradient>
<linearGradient id="paint3_linear_8_60" x1="67.5805" y1="123.52" x2="67.5805" y2="128.962" gradientUnits="userSpaceOnUse">
<stop stop-color="#1D428A"/>
<stop offset="1" stop-color="#C8102E"/>
</linearGradient>
<linearGradient id="paint4_linear_8_60" x1="67.2785" y1="123.715" x2="67.2785" y2="128.878" gradientUnits="userSpaceOnUse">
<stop stop-color="#1D428A"/>
<stop offset="1" stop-color="#C8102E"/>
</linearGradient>
<linearGradient id="paint5_linear_8_60" x1="67.3394" y1="123.343" x2="67.3394" y2="128.785" gradientUnits="userSpaceOnUse">
<stop stop-color="#1D428A"/>
<stop offset="1" stop-color="#C8102E"/>
</linearGradient>
<linearGradient id="paint6_linear_8_60" x1="61.1218" y1="111.436" x2="61.1218" y2="120.53" gradientUnits="userSpaceOnUse">
<stop stop-color="#1D428A"/>
<stop offset="1" stop-color="#C8102E"/>
</linearGradient>
<linearGradient id="paint7_linear_8_60" x1="60.9056" y1="111.771" x2="60.9056" y2="121.872" gradientUnits="userSpaceOnUse">
<stop stop-color="#1D428A"/>
<stop offset="1" stop-color="#C8102E"/>
</linearGradient>
<linearGradient id="paint8_linear_8_60" x1="60.9714" y1="111.929" x2="60.9714" y2="124.019" gradientUnits="userSpaceOnUse">
<stop stop-color="#1D428A"/>
<stop offset="1" stop-color="#C8102E"/>
</linearGradient>
<linearGradient id="paint9_linear_8_60" x1="61.1445" y1="112.126" x2="61.1445" y2="124.846" gradientUnits="userSpaceOnUse">
<stop stop-color="#1D428A"/>
<stop offset="1" stop-color="#C8102E"/>
</linearGradient>
<linearGradient id="paint10_linear_8_60" x1="61.4075" y1="110.725" x2="61.4075" y2="123.706" gradientUnits="userSpaceOnUse">
<stop stop-color="#1D428A"/>
<stop offset="1" stop-color="#C8102E"/>
</linearGradient>
<linearGradient id="paint11_linear_8_60" x1="61.685" y1="110.21" x2="61.685" y2="124.994" gradientUnits="userSpaceOnUse">
<stop stop-color="#1D428A"/>
<stop offset="1" stop-color="#C8102E"/>
</linearGradient>
<linearGradient id="paint12_linear_8_60" x1="61.7271" y1="111.708" x2="61.7271" y2="119.269" gradientUnits="userSpaceOnUse">
<stop stop-color="#1D428A"/>
<stop offset="1" stop-color="#C8102E"/>
</linearGradient>
<linearGradient id="paint13_linear_8_60" x1="54.7381" y1="110.883" x2="54.7381" y2="120.639" gradientUnits="userSpaceOnUse">
<stop stop-color="#1D428A"/>
<stop offset="1" stop-color="#C8102E"/>
</linearGradient>
<linearGradient id="paint14_linear_8_60" x1="67.4135" y1="101.979" x2="67.4135" y2="108.036" gradientUnits="userSpaceOnUse">
<stop stop-color="#1D428A"/>
<stop offset="1" stop-color="#C8102E"/>
</linearGradient>
<linearGradient id="paint15_linear_8_60" x1="48.1516" y1="226.977" x2="48.1516" y2="242.199" gradientUnits="userSpaceOnUse">
<stop stop-color="#1D428A"/>
<stop offset="1" stop-color="#C8102E"/>
</linearGradient>
</defs>
</svg>
